<?xml version="1.0" encoding="UTF-8" standalone="no"?>
<svg
   xmlns:dc="http://purl.org/dc/elements/1.1/"
   xmlns:cc="http://creativecommons.org/ns#"
   xmlns:rdf="http://www.w3.org/1999/02/22-rdf-syntax-ns#"
   xmlns:svg="http://www.w3.org/2000/svg"
   xmlns="http://www.w3.org/2000/svg"
   version="1.1"
   id="svg2"
   viewBox="0 0 16 16"
   height="16"
   width="16">
  <defs
     id="defs4" />
  <metadata
     id="metadata7">
    <rdf:RDF>
      <cc:Work
         rdf:about="">
        <dc:format>image/svg+xml</dc:format>
        <dc:type
           rdf:resource="http://purl.org/dc/dcmitype/StillImage" />
        <dc:title></dc:title>
      </cc:Work>
    </rdf:RDF>
  </metadata>
  <g
     transform="translate(0,-1036.3622)"
     id="layer1">
    <path
       style="fill:#828282;fill-opacity:1;stroke:none;stroke-width:0.20786563"
       id="选区-2"
       d="m 0.0810931,1044.3645 c 0.01710676,-0.6653 1.1119587,-1.629 1.5700468,-2.0871 0,0 3.9916464,-3.9916 3.9916464,-3.9916 0.4808989,-0.481 1.4788105,-1.591 2.0908623,-1.7793 1.2906325,-0.3953 1.7259133,1.3363 3.6114914,2.3495 0.07792,-2.2068 2.043343,-1.458 2.33036,-1.1804 0.480898,0.46 0.326935,2.2144 0.330737,2.8911 0.0038,0.4429 -0.02092,0.9104 0.193881,1.3134 0.218589,0.4124 3.295959,3.0053 0.752708,3.4251 0,0 -0.946589,0 -0.946589,0 0,0 0,5.3356 0,5.3356 -0.0038,0.5188 0.05131,1.1881 -0.439082,1.5169 -0.471393,0.3117 -2.69151,0.1938 -3.362485,0.1938 0,0 0,-3.8015 0,-3.8015 -0.0038,-0.6463 0.03422,-1.323 -0.4618921,-1.819 -0.6994891,-0.6996 -2.9652236,-0.6635 -3.5791761,0.152 -0.3858597,0.5094 -0.3288362,1.2508 -0.3307368,1.857 0,0 0,3.6115 0,3.6115 -0.6709764,0 -2.8910923,0.1179 -3.362486,-0.1938 -0.4485856,-0.3003 -0.4295777,-0.8478 -0.4390816,-1.3268 0,0 0,-5.5123 0,-5.5123 -0.6785794,0 -1.97301368,0.059 -1.9502043,-0.9541 z" />
  </g>
</svg>
