<?xml version="1.0" encoding="UTF-8" standalone="no"?>
<svg
   xmlns:dc="http://purl.org/dc/elements/1.1/"
   xmlns:cc="http://creativecommons.org/ns#"
   xmlns:rdf="http://www.w3.org/1999/02/22-rdf-syntax-ns#"
   xmlns:svg="http://www.w3.org/2000/svg"
   xmlns="http://www.w3.org/2000/svg"
   version="1.1"
   id="svg2"
   viewBox="0 0 16 16"
   height="16"
   width="16">
  <defs
     id="defs4" />
  <metadata
     id="metadata7">
    <rdf:RDF>
      <cc:Work
         rdf:about="">
        <dc:format>image/svg+xml</dc:format>
        <dc:type
           rdf:resource="http://purl.org/dc/dcmitype/StillImage" />
        <dc:title></dc:title>
      </cc:Work>
    </rdf:RDF>
  </metadata>
  <g
     transform="translate(0,-1036.3622)"
     id="layer1">
    <path
       style="fill:#828282;fill-opacity:1;stroke:none;stroke-width:0.17828262"
       id="选区"
       d="m 16.020616,1037.9652 c 0,0.5674 0.09547,1.4248 -0.288208,1.8716 -0.335037,0.3908 -1.377984,0.8159 -1.873339,1.0573 0,0 -3.782707,1.8896 -3.782707,1.8896 -0.6484628,0.3242 -1.4158115,0.8069 -2.1615447,0.688 -0.6682791,-0.1062 -3.5521424,-1.5635 -4.3230938,-1.949 -0.7151112,-0.3549 -3.07299856,-1.2861 -3.41884561,-1.8264 -0.24677661,-0.3873 -0.18373158,-1.2627 -0.18373158,-1.7311 0,0 16.03146969,0 16.03146969,0 z m -10.2673457,7.0809 c 0,0 2.5218038,1.007 2.5218038,1.007 0,0 2.3416759,-1.0179 2.3416759,-1.0179 0,0 5.403866,-2.5667 5.403866,-2.5667 0,0 0,7.7401 0,7.7401 0,0 -12.0686342,0 -12.0686342,0 0,0 -2.6713108,0 -2.6713108,0 0,0 -1.11499778,-0.3117 -1.11499778,-0.3117 0,0 -0.17652691,-1.304 -0.17652691,-1.304 0,0 0,-6.1244 0,-6.1244 0,0 5.76412399,2.5776 5.76412399,2.5776 z" />
  </g>
</svg>
